<?xml version="1.0" encoding="UTF-8" standalone="no"?><!DOCTYPE svg PUBLIC "-//W3C//DTD SVG 1.1//EN" "http://www.w3.org/Graphics/SVG/1.1/DTD/svg11.dtd"><svg width="100%" height="100%" viewBox="0 0 192 192" version="1.1" xmlns="http://www.w3.org/2000/svg" xmlns:xlink="http://www.w3.org/1999/xlink" xml:space="preserve" xmlns:serif="http://www.serif.com/" style="fill-rule:evenodd;clip-rule:evenodd;stroke-miterlimit:1.5;"><rect x="0" y="0" width="192" height="192"/><g id="kleines-Quadrat" serif:id="kleines Quadrat"><path d="M182.4,0l0,192" style="fill:none;stroke:#292929;stroke-width:0.24px;"/><path d="M163.2,-0.03l-0,192.03" style="fill:none;stroke:#292929;stroke-width:0.24px;"/><path d="M124.8,192.03l0,-192.06" style="fill:none;stroke:#292929;stroke-width:0.24px;"/><path d="M105.6,0l-0,192.03" style="fill:none;stroke:#292929;stroke-width:0.24px;"/><path d="M86.4,192l-0,-192.03" style="fill:none;stroke:#292929;stroke-width:0.24px;"/><path d="M67.2,192.03l0,-192.03" style="fill:none;stroke:#292929;stroke-width:0.24px;"/><path d="M28.8,192l-0,-192" style="fill:none;stroke:#292929;stroke-width:0.24px;"/><path d="M9.6,-0.03l0,192.03" style="fill:none;stroke:#292929;stroke-width:0.24px;"/><path d="M0.03,182.4l192,0" style="fill:none;stroke:#292929;stroke-width:0.24px;"/><path d="M0.03,163.2l192,-0" style="fill:none;stroke:#292929;stroke-width:0.24px;"/><path d="M0.03,124.8l192,0" style="fill:none;stroke:#292929;stroke-width:0.24px;"/><path d="M0.03,105.6l191.97,-0" style="fill:none;stroke:#292929;stroke-width:0.24px;"/><path d="M0.03,86.4l192,-0" style="fill:none;stroke:#292929;stroke-width:0.24px;"/><path d="M0.03,67.2l192,0" style="fill:none;stroke:#292929;stroke-width:0.24px;"/><path d="M0.03,9.6l192,0" style="fill:none;stroke:#292929;stroke-width:0.24px;"/><path d="M-0.04,28.8l192.04,-0" style="fill:none;stroke:#292929;stroke-width:0.24px;"/></g><g id="Großes-Quadrat" serif:id="Großes Quadrat"><path d="M144,0.03l-0,192" style="fill:none;stroke:#2c2c2c;stroke-width:1px;"/><path d="M48,0.03l0,192" style="fill:none;stroke:#2c2c2c;stroke-width:1px;"/><path d="M0.03,144l192,-0" style="fill:none;stroke:#2c2c2c;stroke-width:1px;"/><path d="M-0.04,48l192.04,0" style="fill:none;stroke:#2c2c2c;stroke-width:1px;"/></g></svg>